HIERARCHY
ROOT Hips
{
	OFFSET 0.000000 0.000000 0.000000
	CHANNELS 6 Xposition Yposition Zposition Zrotation Yrotation Xrotation 
	JOINT LowerBack
	{
		OFFSET 0.000000 0.000000 0.000000
		CHANNELS 3 Zrotation Yrotation Xrotation
		JOINT Spine
		{
			OFFSET 0.028270 2.035590 -0.193380
			CHANNELS 3 Zrotation Yrotation Xrotation
			JOINT Spine1
			{
				OFFSET 0.056720 2.048850 -0.042750
				CHANNELS 3 Zrotation Yrotation Xrotation
				JOINT Neck
				{
					OFFSET 0.000000 0.000000 0.000000
					CHANNELS 3 Zrotation Yrotation Xrotation
					JOINT Neck1
					{
						OFFSET -0.054170 1.746240 0.172020
						CHANNELS 3 Zrotation Yrotation Xrotation
						JOINT Head
						{
							OFFSET 0.104070 1.761360 -0.123970
							CHANNELS 3 Zrotation Yrotation Xrotation
							End Site
							{
								OFFSET 0.000000 0.000000 0.000000
							}
						}
					}
				}
				JOINT LeftShoulder
				{
					OFFSET 0.000000 0.000000 0.000000
					CHANNELS 3 Zrotation Yrotation Xrotation
					JOINT LeftArm
					{
						OFFSET 3.362410 1.200890 -0.311210
						CHANNELS 3 Zrotation Yrotation Xrotation
						JOINT LeftForeArm
						{
							OFFSET 4.983000 -0.000000 -0.000000
							CHANNELS 3 Zrotation Yrotation Xrotation
							JOINT LeftHand
							{
								OFFSET 3.483560 -0.000000 -0.000000
								CHANNELS 3 Zrotation Yrotation Xrotation
								JOINT LeftFingerBase
								{
									OFFSET 0.000000 0.000000 0.000000
									CHANNELS 3 Zrotation Yrotation Xrotation
									JOINT LeftHandIndex1
									{
										OFFSET 0.715260 -0.000000 -0.000000
										CHANNELS 3 Zrotation Yrotation Xrotation
										End Site
										{
											OFFSET 0.000000 0.000000 0.000000
										}
									}
								}
								JOINT LThumb
								{
									OFFSET 0.000000 0.000000 0.000000
									CHANNELS 3 Zrotation Yrotation Xrotation
									End Site
									{
										OFFSET 0.000000 0.000000 0.000000
									}
								}
							}
						}
					}
				}
				JOINT RightShoulder
				{
					OFFSET 0.000000 0.000000 0.000000
					CHANNELS 3 Zrotation Yrotation Xrotation
					JOINT RightArm
					{
						OFFSET -3.136600 1.374050 -0.404650
						CHANNELS 3 Zrotation Yrotation Xrotation
						JOINT RightForeArm
						{
							OFFSET -5.241900 -0.000000 -0.000000
							CHANNELS 3 Zrotation Yrotation Xrotation
							JOINT RightHand
							{
								OFFSET -3.444170 -0.000000 -0.000000
								CHANNELS 3 Zrotation Yrotation Xrotation
								JOINT RightFingerBase
								{
									OFFSET 0.000000 0.000000 0.000000
									CHANNELS 3 Zrotation Yrotation Xrotation
									JOINT RightHandIndex1
									{
										OFFSET -0.622530 -0.000000 -0.000000
										CHANNELS 3 Zrotation Yrotation Xrotation
										End Site
										{
											OFFSET 0.000000 0.000000 0.000000
										}
									}
								}
								JOINT RThumb
								{
									OFFSET 0.000000 0.000000 0.000000
									CHANNELS 3 Zrotation Yrotation Xrotation
									End Site
									{
										OFFSET 0.000000 0.000000 0.000000
									}
								}
							}
						}
					}
				}
			}
		}
	}
}
}
MOTION
Frames: 13
Frame Time: 0.008333
5.688086 17.289941 0.172421 155.666552 -84.546624 -132.844629 -1.013785 -0.806888 -9.686978 -1.028476 -1.083003 -4.861524 -6.781046 -1.183365 -0.245797 9.720328 -6.988076 -9.490839 -3.638687 -0.255948 -0.561644 0.000000 0.000000 0.000000 -2.075203 12.018604 1.599129 -59.023532 -3.319737 -10.951348 -0.575307 -74.610583 -0.095309 27.406635 -1.497391 -0.424059 -0.299686 0.233844 -0.000000 0.000000 0.000000 0.000000 0.000000 0.000000 0.000000 13.540741 -1.080372 -0.083261 67.180020 13.566146 -6.841377 0.585090 68.244969 -0.066493 -13.961919 16.556864 -2.119064 0.133292 -0.467390 0.000000 0.000000 0.000000 0.000000 0.000000 0.000000 0.000000 
5.582701 17.261331 0.168827 156.117469 -84.212067 -132.715067 -1.182790 -0.628498 -9.800842 -1.075623 -0.891789 -4.903925 -6.742062 -0.991551 -0.304315 9.643152 -6.740068 -9.508931 -3.639111 -0.255210 -0.576041 0.000000 0.000000 0.000000 -2.157400 12.246942 1.634485 -59.201831 -3.466032 -11.208314 -0.562223 -74.698009 -0.095587 27.777402 -1.722236 -0.486179 -0.301416 0.234141 -0.000000 0.000000 0.000000 0.000000 0.000000 0.000000 0.000000 13.405301 -0.704680 -0.095269 67.391658 14.239547 -5.883228 0.575113 68.586179 -0.070051 -14.285728 16.812495 -2.203318 0.136064 -0.478897 0.000000 0.000000 0.000000 0.000000 0.000000 0.000000 0.000000 
5.478513 17.225697 0.165952 156.494397 -83.893225 -132.494384 -1.343432 -0.469398 -9.916568 -1.119449 -0.719748 -4.950245 -6.701069 -0.819124 -0.376451 9.566909 -6.463968 -9.518314 -3.646691 -0.255104 -0.588581 0.000000 0.000000 0.000000 -2.254962 12.436433 1.671597 -59.457242 -3.562471 -11.414482 -0.547873 -74.854053 -0.095677 28.144848 -2.015431 -0.567387 -0.303009 0.234892 -0.000000 0.000000 0.000000 0.000000 0.000000 0.000000 0.000000 13.293758 -0.309384 -0.102963 67.627161 14.897282 -4.935140 0.566301 68.911796 -0.073495 -14.579293 17.108918 -2.289773 0.138453 -0.490612 0.000000 0.000000 0.000000 0.000000 0.000000 0.000000 0.000000 
5.375249 17.182037 0.163666 156.748998 -83.598589 -132.137477 -1.495432 -0.332449 -10.036005 -1.159738 -0.569867 -5.000192 -6.659227 -0.669000 -0.460182 9.495467 -6.169535 -9.522071 -3.661482 -0.255607 -0.600080 0.000000 0.000000 0.000000 -2.373516 12.589805 1.709993 -59.781762 -3.612206 -11.569747 -0.531917 -75.088599 -0.095639 28.505097 -2.353749 -0.661987 -0.304562 0.235996 -0.000000 0.000000 0.000000 0.000000 0.000000 0.000000 0.000000 13.212350 0.095673 -0.106688 67.895401 15.542693 -4.000464 0.558885 69.225330 -0.076693 -14.818377 17.443202 -2.374231 0.140218 -0.502545 0.000000 0.000000 0.000000 0.000000 0.000000 0.000000 0.000000 
5.273062 17.129243 0.161931 156.868808 -83.333435 -131.642985 -1.635949 -0.218462 -10.153879 -1.195731 -0.443163 -5.051358 -6.616980 -0.541979 -0.551005 9.432179 -5.876038 -9.527649 -3.682310 -0.256530 -0.612656 0.000000 0.000000 0.000000 -2.518724 12.719056 1.748044 -60.173245 -3.637569 -11.675155 -0.514361 -75.399008 -0.095594 28.855404 -2.707399 -0.762780 -0.306141 0.237409 -0.000000 0.000000 0.000000 0.000000 0.000000 0.000000 0.000000 13.163969 0.491317 -0.107165 68.209973 16.194555 -3.083430 0.553030 69.519564 -0.079567 -14.988256 17.811319 -2.453590 0.141195 -0.514705 0.000000 0.000000 0.000000 0.000000 0.000000 0.000000 0.000000 
5.171058 17.066213 0.160523 156.788198 -83.107612 -130.930523 -1.768579 -0.130736 -10.295803 -1.228938 -0.343729 -5.111337 -6.580240 -0.442704 -0.658897 9.387198 -5.547100 -9.523472 -3.715122 -0.258539 -0.622968 0.000000 0.000000 0.000000 -2.688197 12.804525 1.789159 -60.621043 -3.602270 -11.747283 -0.493832 -75.815331 -0.095627 29.199284 -3.030207 -0.857465 -0.307773 0.238737 -0.000000 0.000000 0.000000 0.000000 0.000000 0.000000 0.000000 13.173884 0.917816 -0.104106 68.551660 16.776512 -2.219217 0.545927 69.858181 -0.082352 -15.118911 18.179879 -2.527452 0.141593 -0.526986 0.000000 0.000000 0.000000 0.000000 0.000000 0.000000 0.000000 
5.069661 16.991854 0.159595 156.543211 -82.919720 -130.053298 -1.887984 -0.066908 -10.444468 -1.257795 -0.269214 -5.173300 -6.546722 -0.368304 -0.771556 9.361356 -5.235705 -9.528556 -3.754647 -0.260964 -0.636442 0.000000 0.000000 0.000000 -2.888416 12.871751 1.828146 -61.134562 -3.558063 -11.786599 -0.470976 -76.310231 -0.095944 29.536856 -3.291361 -0.937746 -0.309456 0.240047 -0.000000 0.000000 0.000000 0.000000 0.000000 0.000000 0.000000 13.233312 1.319696 -0.098659 68.952897 17.358464 -1.395321 0.538807 70.190740 -0.085070 -15.223545 18.555415 -2.598915 0.141597 -0.539368 0.000000 0.000000 0.000000 0.000000 0.000000 0.000000 0.000000 
4.968386 16.905161 0.159143 156.113458 -82.772543 -128.983889 -1.995026 -0.027314 -10.613864 -1.282765 -0.220467 -5.239806 -6.518622 -0.319790 -0.888424 9.360788 -4.944558 -9.545399 -3.801701 -0.263877 -0.653704 0.000000 0.000000 0.000000 -3.116630 12.922873 1.863864 -61.717638 -3.508439 -11.797194 -0.445638 -76.878519 -0.096673 29.876278 -3.456919 -0.993826 -0.311160 0.241126 -0.000000 0.000000 0.000000 0.000000 0.000000 0.000000 0.000000 13.351742 1.694819 -0.092000 69.417239 17.924880 -0.618945 0.530427 70.526169 -0.088046 -15.362008 18.926213 -2.676381 0.141812 -0.551718 0.000000 0.000000 0.000000 0.000000 0.000000 0.000000 0.000000 
4.867138 16.805360 0.159281 155.508617 -82.663870 -127.734878 -2.089390 -0.009766 -10.801277 -1.303754 -0.195261 -5.308564 -6.495140 -0.294800 -1.003114 9.387272 -4.696829 -9.583733 -3.853702 -0.266961 -0.677563 0.000000 0.000000 0.000000 -3.367039 12.973024 1.893119 -62.385266 -3.486141 -11.771484 -0.418719 -77.485852 -0.097943 30.226349 -3.511764 -1.021208 -0.312789 0.241960 -0.000000 0.000000 0.000000 0.000000 0.000000 0.000000 0.000000 13.525672 2.018276 -0.085837 69.960674 18.496022 0.120823 0.520556 70.839691 -0.091607 -15.601808 19.299461 -2.773447 0.142956 -0.563925 0.000000 0.000000 0.000000 0.000000 0.000000 0.000000 0.000000 
4.764666 16.692064 0.160017 154.729071 -82.595462 -126.285734 -2.168488 -0.013752 -11.036453 -1.321130 -0.194437 -5.389627 -6.480665 -0.294982 -1.130885 9.442297 -4.454986 -9.626052 -3.915454 -0.270887 -0.702785 0.000000 0.000000 0.000000 -3.640781 12.971117 1.919083 -63.123923 -3.408913 -11.727901 -0.388748 -78.164107 -0.099641 30.603711 -3.430693 -1.011993 -0.314137 0.241905 -0.000000 0.000000 0.000000 0.000000 0.000000 0.000000 0.000000 13.765798 2.328330 -0.077793 70.572776 18.996683 0.802591 0.507187 71.163695 -0.096274 -16.029929 19.666426 -2.906010 0.145847 -0.575817 -0.000000 0.000000 0.000000 0.000000 0.000000 0.000000 0.000000 
4.661423 16.565277 0.161615 153.815208 -82.560061 -124.691604 -2.232051 -0.034487 -11.298606 -1.334296 -0.212370 -5.474503 -6.470181 -0.314194 -1.255028 9.521345 -4.265965 -9.692109 -3.979511 -0.274789 -0.735113 0.000000 0.000000 0.000000 -3.923823 12.960180 1.935729 -63.964273 -3.359778 -11.625570 -0.358995 -78.821937 -0.101824 31.019313 -3.246691 -0.974587 -0.315026 0.241314 -0.000000 0.000000 0.000000 0.000000 0.000000 0.000000 0.000000 14.050129 2.572617 -0.071262 71.283448 19.491686 1.474010 0.491964 71.423843 -0.102258 -16.711475 20.071791 -3.094975 0.151184 -0.587237 -0.000000 0.000000 0.000000 0.000000 0.000000 0.000000 0.000000 
4.556555 16.425519 0.164136 152.800257 -82.555767 -122.975297 -2.277419 -0.069030 -11.598692 -1.343181 -0.246736 -5.567154 -6.464407 -0.350579 -1.381136 9.619649 -4.111218 -9.772361 -4.046307 -0.278848 -0.771654 0.000000 0.000000 0.000000 -4.209992 12.914448 1.944357 -64.902676 -3.302959 -11.451775 -0.330220 -79.435888 -0.104286 31.487540 -2.982634 -0.914391 -0.315169 0.239937 -0.000000 0.000000 0.000000 0.000000 0.000000 0.000000 0.000000 14.372498 2.766756 -0.064545 72.091393 19.944911 2.145947 0.474845 71.606386 -0.109783 -17.706188 20.541290 -3.360036 0.159422 -0.597891 0.000000 0.000000 0.000000 0.000000 0.000000 0.000000 0.000000 
4.449668 16.273950 0.167720 151.727673 -82.579775 -121.180458 -2.302018 -0.113468 -11.937834 -1.347467 -0.293885 -5.667910 -6.462332 -0.400719 -1.508133 9.730307 -3.983693 -9.862991 -4.113808 -0.282949 -0.811133 0.000000 0.000000 0.000000 -4.489628 12.829338 1.945197 -65.938822 -3.237339 -11.176670 -0.304272 -79.949545 -0.106816 32.016175 -2.681156 -0.842508 -0.314249 0.237802 -0.000000 0.000000 0.000000 0.000000 0.000000 0.000000 0.000000 14.718862 2.914090 -0.056641 72.998060 20.343959 2.844930 0.456699 71.673823 -0.118760 -19.042976 21.111405 -3.719599 0.170587 -0.607350 -0.000000 0.000000 0.000000 0.000000 0.000000 0.000000 0.000000 
